<?xml version="1.0" standalone="no"?>
<!DOCTYPE svg PUBLIC "-//W3C//DTD SVG 20010904//EN"
 "http://www.w3.org/TR/2001/REC-SVG-20010904/DTD/svg10.dtd">
<svg version="1.0" xmlns="http://www.w3.org/2000/svg"
 width="512.000000pt" height="512.000000pt" viewBox="0 0 512.000000 512.000000"
 preserveAspectRatio="xMidYMid meet">

<g transform="translate(0.000000,512.000000) scale(0.100000,-0.100000)"
fill="#000000" stroke="none">
<path d="M2100 4394 c-438 -21 -1043 -100 -1138 -148 -103 -52 -167 -157 -167
-275 l0 -65 93 -30 92 -30 0 -243 0 -243 95 0 95 0 0 374 0 373 108 16 c430
66 669 82 1177 82 538 -1 754 -17 1225 -92 157 -25 167 -28 198 -59 31 -31 32
-34 32 -118 0 -47 4 -86 8 -86 4 0 46 13 92 29 l85 28 0 79 c-1 68 -5 86 -30
133 -37 67 -109 126 -178 146 -109 31 -551 90 -867 115 -136 11 -781 21 -920
14z"/>
<path d="M4823 4172 c-6 -11 -39 -29 -72 -42 l-61 -22 0 -262 0 -261 75 0 75
0 0 303 c0 166 -1 302 -3 302 -1 0 -7 -8 -14 -18z"/>
<path d="M1370 2366 c0 -135 3 -247 8 -250 4 -2 56 15 116 39 l108 44 103 -41
c57 -22 111 -38 119 -35 14 6 16 37 16 247 l0 240 -235 0 -235 0 0 -244z"/>
<path d="M595 1465 c-126 -24 -218 -66 -318 -147 -179 -144 -271 -335 -271
-563 0 -126 17 -204 68 -310 92 -193 262 -336 466 -392 62 -17 177 -18 2152
-18 l2087 0 28 21 c54 40 75 83 71 142 -5 56 -25 91 -72 126 l-27 21 -2072 5
-2072 5 -67 32 c-90 42 -160 110 -201 192 -30 62 -32 72 -32 176 0 98 3 116
26 165 34 71 104 149 166 183 112 61 -25 57 2204 57 l2036 0 33 22 c48 33 72
70 77 120 7 58 -15 108 -63 144 l-37 29 -2056 2 c-1668 1 -2069 -1 -2126 -12z"/>
</g>
</svg>
